<mxfile host="65bd71144e">
    <diagram id="ZlqRAij7mXo5YdoWd2Ts" name="Page-1">
        <mxGraphModel dx="1408" dy="422" grid="1" gridSize="10" guides="1" tooltips="1" connect="1" arrows="1" fold="1" page="1" pageScale="1" pageWidth="850" pageHeight="1100" math="0" shadow="0">
            <root>
                <mxCell id="0"/>
                <mxCell id="1" parent="0"/>
                <mxCell id="6" style="edgeStyle=none;html=1;" parent="1" source="2" target="4" edge="1">
                    <mxGeometry relative="1" as="geometry"/>
                </mxCell>
                <mxCell id="2" value="pageLoaded" style="rounded=1;whiteSpace=wrap;html=1;strokeColor=#78ACF0;" parent="1" vertex="1">
                    <mxGeometry x="220" y="40" width="110" height="40" as="geometry"/>
                </mxCell>
                <mxCell id="9" style="edgeStyle=none;html=1;" parent="1" source="3" target="8" edge="1">
                    <mxGeometry relative="1" as="geometry"/>
                </mxCell>
                <mxCell id="3" value="gotSecureParams\&lt;br&gt;AndRelm" style="rounded=1;whiteSpace=wrap;html=1;strokeColor=#78ACF0;" parent="1" vertex="1">
                    <mxGeometry x="220" y="120" width="110" height="40" as="geometry"/>
                </mxCell>
                <mxCell id="7" style="edgeStyle=none;html=1;" parent="1" source="4" target="3" edge="1">
                    <mxGeometry relative="1" as="geometry"/>
                </mxCell>
                <mxCell id="4" value="getParticipant\&lt;br&gt;AndRelm" style="whiteSpace=wrap;html=1;" parent="1" vertex="1">
                    <mxGeometry x="400" y="40" width="110" height="40" as="geometry"/>
                </mxCell>
                <mxCell id="11" style="edgeStyle=none;html=1;" parent="1" source="8" target="10" edge="1">
                    <mxGeometry relative="1" as="geometry"/>
                </mxCell>
                <mxCell id="8" value="getRelmPermits\&lt;br&gt;AndMetadata" style="whiteSpace=wrap;html=1;" parent="1" vertex="1">
                    <mxGeometry x="400" y="120" width="110" height="40" as="geometry"/>
                </mxCell>
                <mxCell id="13" style="edgeStyle=none;html=1;" parent="1" source="10" target="12" edge="1">
                    <mxGeometry relative="1" as="geometry"/>
                </mxCell>
                <mxCell id="15" style="edgeStyle=none;html=1;" parent="1" source="10" target="14" edge="1">
                    <mxGeometry relative="1" as="geometry"/>
                </mxCell>
                <mxCell id="19" style="edgeStyle=none;html=1;" parent="1" source="10" target="16" edge="1">
                    <mxGeometry relative="1" as="geometry"/>
                </mxCell>
                <mxCell id="20" style="edgeStyle=none;html=1;" parent="1" source="10" target="18" edge="1">
                    <mxGeometry relative="1" as="geometry"/>
                </mxCell>
                <mxCell id="10" value="gotRelmPermits\&lt;br&gt;AndMetadata" style="rounded=1;whiteSpace=wrap;html=1;strokeColor=#78ACF0;" parent="1" vertex="1">
                    <mxGeometry x="220" y="200" width="110" height="40" as="geometry"/>
                </mxCell>
                <mxCell id="12" value="assert has access" style="whiteSpace=wrap;html=1;" parent="1" vertex="1">
                    <mxGeometry x="50" y="150" width="110" height="40" as="geometry"/>
                </mxCell>
                <mxCell id="14" value="set loading max values" style="whiteSpace=wrap;html=1;" parent="1" vertex="1">
                    <mxGeometry x="50" y="200" width="110" height="40" as="geometry"/>
                </mxCell>
                <mxCell id="37" style="edgeStyle=none;html=1;" parent="1" source="16" target="36" edge="1">
                    <mxGeometry relative="1" as="geometry"/>
                </mxCell>
                <mxCell id="16" value="importPhysics\&lt;br&gt;Engine" style="rounded=1;whiteSpace=wrap;html=1;strokeColor=#78ACF0;" parent="1" vertex="1">
                    <mxGeometry x="140" y="280" width="110" height="40" as="geometry"/>
                </mxCell>
                <mxCell id="26" style="edgeStyle=none;html=1;" parent="1" source="17" target="21" edge="1">
                    <mxGeometry relative="1" as="geometry"/>
                </mxCell>
                <mxCell id="17" value="setUpAudioVideo" style="rounded=1;whiteSpace=wrap;html=1;strokeColor=#78ACF0;" parent="1" vertex="1">
                    <mxGeometry x="310" y="280" width="110" height="40" as="geometry"/>
                </mxCell>
                <mxCell id="59" style="edgeStyle=none;html=1;" parent="1" source="18" target="17" edge="1">
                    <mxGeometry relative="1" as="geometry"/>
                </mxCell>
                <mxCell id="18" value="nextSetupStep" style="whiteSpace=wrap;html=1;" parent="1" vertex="1">
                    <mxGeometry x="480" y="240" width="110" height="40" as="geometry"/>
                </mxCell>
                <mxCell id="29" style="edgeStyle=none;html=1;" parent="1" source="21" target="28" edge="1">
                    <mxGeometry relative="1" as="geometry"/>
                </mxCell>
                <mxCell id="21" value="didSetUp\&lt;br&gt;AudioVideo" style="rounded=1;whiteSpace=wrap;html=1;strokeColor=#78ACF0;" parent="1" vertex="1">
                    <mxGeometry x="310" y="360" width="110" height="40" as="geometry"/>
                </mxCell>
                <mxCell id="31" style="edgeStyle=none;html=1;" parent="1" source="22" target="23" edge="1">
                    <mxGeometry relative="1" as="geometry"/>
                </mxCell>
                <mxCell id="22" value="setUpAvatar" style="rounded=1;whiteSpace=wrap;html=1;strokeColor=#78ACF0;" parent="1" vertex="1">
                    <mxGeometry x="310" y="440" width="110" height="40" as="geometry"/>
                </mxCell>
                <mxCell id="33" value="" style="edgeStyle=none;html=1;" parent="1" source="23" target="32" edge="1">
                    <mxGeometry relative="1" as="geometry"/>
                </mxCell>
                <mxCell id="23" value="didSetUpAvatar" style="rounded=1;whiteSpace=wrap;html=1;strokeColor=#78ACF0;" parent="1" vertex="1">
                    <mxGeometry x="310" y="520" width="110" height="40" as="geometry"/>
                </mxCell>
                <mxCell id="60" style="edgeStyle=none;html=1;" parent="1" source="28" target="22" edge="1">
                    <mxGeometry relative="1" as="geometry"/>
                </mxCell>
                <mxCell id="28" value="nextSetupStep" style="whiteSpace=wrap;html=1;" parent="1" vertex="1">
                    <mxGeometry x="480" y="360" width="110" height="40" as="geometry"/>
                </mxCell>
                <mxCell id="35" style="edgeStyle=none;html=1;" parent="1" source="32" target="34" edge="1">
                    <mxGeometry relative="1" as="geometry"/>
                </mxCell>
                <mxCell id="32" value="nextSetupStep" style="whiteSpace=wrap;html=1;" parent="1" vertex="1">
                    <mxGeometry x="480" y="520" width="110" height="40" as="geometry"/>
                </mxCell>
                <mxCell id="55" style="edgeStyle=none;html=1;" parent="1" source="34" target="50" edge="1">
                    <mxGeometry relative="1" as="geometry"/>
                </mxCell>
                <mxCell id="34" value="loading" style="rounded=1;whiteSpace=wrap;html=1;strokeColor=#78ACF0;" parent="1" vertex="1">
                    <mxGeometry x="310" y="600" width="110" height="40" as="geometry"/>
                </mxCell>
                <mxCell id="39" style="edgeStyle=none;html=1;" parent="1" source="36" target="38" edge="1">
                    <mxGeometry relative="1" as="geometry"/>
                </mxCell>
                <mxCell id="36" value="createECSWorld" style="whiteSpace=wrap;html=1;" parent="1" vertex="1">
                    <mxGeometry x="-30" y="280" width="110" height="40" as="geometry"/>
                </mxCell>
                <mxCell id="41" style="edgeStyle=none;html=1;" parent="1" source="38" target="40" edge="1">
                    <mxGeometry relative="1" as="geometry"/>
                </mxCell>
                <mxCell id="38" value="createdECSWorld" style="rounded=1;whiteSpace=wrap;html=1;strokeColor=#78ACF0;" parent="1" vertex="1">
                    <mxGeometry x="140" y="360" width="110" height="40" as="geometry"/>
                </mxCell>
                <mxCell id="44" style="edgeStyle=none;html=1;" parent="1" source="40" target="42" edge="1">
                    <mxGeometry relative="1" as="geometry"/>
                </mxCell>
                <mxCell id="40" value="createWorldDoc" style="whiteSpace=wrap;html=1;" parent="1" vertex="1">
                    <mxGeometry x="-30" y="360" width="110" height="40" as="geometry"/>
                </mxCell>
                <mxCell id="45" style="edgeStyle=none;html=1;" parent="1" source="42" target="34" edge="1">
                    <mxGeometry relative="1" as="geometry"/>
                </mxCell>
                <mxCell id="42" value="createdWorldDoc" style="rounded=1;whiteSpace=wrap;html=1;strokeColor=#78ACF0;" parent="1" vertex="1">
                    <mxGeometry x="140" y="440" width="110" height="40" as="geometry"/>
                </mxCell>
                <mxCell id="74" style="edgeStyle=none;html=1;" edge="1" parent="1" source="46" target="73">
                    <mxGeometry relative="1" as="geometry"/>
                </mxCell>
                <mxCell id="46" value="gotPositionFrom\&lt;br&gt;Entryway" style="rounded=1;whiteSpace=wrap;html=1;strokeColor=#78ACF0;" parent="1" vertex="1">
                    <mxGeometry x="310" y="760" width="110" height="40" as="geometry"/>
                </mxCell>
                <mxCell id="63" style="edgeStyle=none;html=1;" parent="1" source="47" target="62" edge="1">
                    <mxGeometry relative="1" as="geometry"/>
                </mxCell>
                <mxCell id="47" value="initWorldManager" style="rounded=1;whiteSpace=wrap;html=1;strokeColor=#78ACF0;" parent="1" vertex="1">
                    <mxGeometry x="310" y="920" width="110" height="40" as="geometry"/>
                </mxCell>
                <mxCell id="77" style="edgeStyle=none;html=1;" edge="1" parent="1" source="48" target="51">
                    <mxGeometry relative="1" as="geometry"/>
                </mxCell>
                <mxCell id="48" value="didInitWorld\&lt;br&gt;Manager" style="rounded=1;whiteSpace=wrap;html=1;" parent="1" vertex="1">
                    <mxGeometry x="310" y="1000" width="110" height="40" as="geometry"/>
                </mxCell>
                <mxCell id="49" value="gotEntrywayUnsub" style="rounded=1;whiteSpace=wrap;html=1;" parent="1" vertex="1">
                    <mxGeometry x="650" y="680" width="110" height="40" as="geometry"/>
                </mxCell>
                <mxCell id="61" style="edgeStyle=none;html=1;" parent="1" source="50" target="54" edge="1">
                    <mxGeometry relative="1" as="geometry"/>
                </mxCell>
                <mxCell id="72" style="edgeStyle=none;html=1;" parent="1" source="50" target="53" edge="1">
                    <mxGeometry relative="1" as="geometry"/>
                </mxCell>
                <mxCell id="50" value="loaded" style="rounded=1;whiteSpace=wrap;html=1;strokeColor=#78ACF0;" parent="1" vertex="1">
                    <mxGeometry x="310" y="680" width="110" height="40" as="geometry"/>
                </mxCell>
                <mxCell id="57" style="edgeStyle=none;html=1;" parent="1" source="51" target="52" edge="1">
                    <mxGeometry relative="1" as="geometry"/>
                </mxCell>
                <mxCell id="51" value="loadedAndReady" style="rounded=1;whiteSpace=wrap;html=1;strokeColor=#78ACF0;" parent="1" vertex="1">
                    <mxGeometry x="310" y="1080" width="110" height="40" as="geometry"/>
                </mxCell>
                <mxCell id="52" value="startPlaying" style="rounded=1;whiteSpace=wrap;html=1;strokeColor=#78ACF0;" parent="1" vertex="1">
                    <mxGeometry x="310" y="1160" width="110" height="40" as="geometry"/>
                </mxCell>
                <mxCell id="76" style="edgeStyle=none;html=1;" edge="1" parent="1" source="53" target="73">
                    <mxGeometry relative="1" as="geometry"/>
                </mxCell>
                <mxCell id="53" value="assumeOriginAs\&lt;br&gt;Entryway" style="rounded=1;whiteSpace=wrap;html=1;strokeColor=#78ACF0;" parent="1" vertex="1">
                    <mxGeometry x="180" y="760" width="110" height="40" as="geometry"/>
                </mxCell>
                <mxCell id="65" style="edgeStyle=none;html=1;" parent="1" source="54" target="49" edge="1">
                    <mxGeometry relative="1" as="geometry"/>
                </mxCell>
                <mxCell id="66" style="edgeStyle=none;html=1;" parent="1" source="54" target="46" edge="1">
                    <mxGeometry relative="1" as="geometry"/>
                </mxCell>
                <mxCell id="54" value="getEntryway\&lt;br&gt;Position" style="whiteSpace=wrap;html=1;" parent="1" vertex="1">
                    <mxGeometry x="480" y="680" width="110" height="40" as="geometry"/>
                </mxCell>
                <mxCell id="64" style="edgeStyle=none;html=1;" parent="1" source="62" target="48" edge="1">
                    <mxGeometry relative="1" as="geometry"/>
                </mxCell>
                <mxCell id="62" value="initWorldManager" style="whiteSpace=wrap;html=1;" parent="1" vertex="1">
                    <mxGeometry x="480" y="920" width="110" height="40" as="geometry"/>
                </mxCell>
                <mxCell id="71" style="edgeStyle=none;html=1;" parent="1" source="70" target="47" edge="1">
                    <mxGeometry relative="1" as="geometry"/>
                </mxCell>
                <mxCell id="70" value="madeLocal\&lt;br&gt;Participant" style="rounded=1;whiteSpace=wrap;html=1;strokeColor=#78ACF0;" parent="1" vertex="1">
                    <mxGeometry x="80" y="920" width="110" height="40" as="geometry"/>
                </mxCell>
                <mxCell id="75" style="edgeStyle=none;html=1;" edge="1" parent="1" source="73" target="47">
                    <mxGeometry relative="1" as="geometry"/>
                </mxCell>
                <mxCell id="73" value="gotEntryway\&lt;br&gt;Position" style="rounded=1;whiteSpace=wrap;html=1;strokeColor=#78ACF0;" vertex="1" parent="1">
                    <mxGeometry x="310" y="840" width="110" height="40" as="geometry"/>
                </mxCell>
            </root>
        </mxGraphModel>
    </diagram>
</mxfile>